<?xml version="1.0" standalone="no"?>
<!DOCTYPE svg PUBLIC "-//W3C//DTD SVG 20010904//EN"
 "http://www.w3.org/TR/2001/REC-SVG-20010904/DTD/svg10.dtd">
<svg version="1.0" xmlns="http://www.w3.org/2000/svg"
 width="800.000000pt" height="800.000000pt" viewBox="0 0 800.000000 800.000000"
 preserveAspectRatio="xMidYMid meet">
<metadata>
Created by potrace 1.14, written by Peter Selinger 2001-2017
</metadata>
<g transform="translate(0.000000,800.000000) scale(0.100000,-0.100000)"
fill="#000000" stroke="none">
<path d="M3057 6065 c-21 -7 -384 -210 -805 -451 -555 -316 -777 -448 -804
-477 -71 -76 -68 -29 -68 -1027 0 -1009 -4 -957 74 -1034 29 -28 292 -183 820
-485 l778 -444 67 -4 c49 -4 78 0 113 14 25 10 385 212 799 448 512 292 766
443 795 471 78 77 75 24 72 1050 l-3 909 -29 53 c-16 28 -43 63 -60 75 -46 35
-1545 889 -1586 904 -46 16 -115 16 -163 -2z m870 -581 c411 -235 762 -440
778 -456 l30 -28 3 -869 c2 -681 0 -876 -10 -907 -13 -38 -26 -45 -788 -481
-475 -272 -785 -443 -801 -443 -16 0 -323 170 -795 440 -660 377 -771 444
-786 472 -17 31 -18 94 -18 896 0 752 2 868 15 896 13 28 115 89 758 456 408
234 758 433 777 443 21 10 46 16 62 13 15 -3 363 -197 775 -432z"/>
<path d="M6310 3289 c-119 -21 -233 -98 -279 -187 -31 -60 -45 -161 -32 -222
29 -136 95 -184 360 -264 169 -52 222 -75 245 -108 18 -26 21 -90 5 -120 -29
-54 -179 -75 -304 -43 -64 17 -189 72 -234 104 l-27 20 -48 -97 c-55 -110 -57
-100 44 -151 118 -60 251 -91 390 -91 211 0 352 70 411 205 34 77 32 193 -5
268 -48 99 -126 145 -353 208 -219 61 -253 83 -253 165 0 116 152 160 335 96
44 -16 98 -40 119 -55 37 -24 40 -25 51 -9 24 35 85 151 85 160 0 14 -106 67
-193 97 -88 29 -228 40 -317 24z"/>
<path d="M5558 2893 c-5 -448 -8 -475 -73 -531 -57 -50 -179 -55 -281 -12 -26
11 -49 19 -51 17 -2 -3 -12 -34 -22 -70 -11 -36 -22 -75 -26 -86 -6 -18 1 -25
47 -46 81 -37 190 -51 292 -37 185 24 280 111 322 297 13 55 17 154 21 468 l5
397 -115 0 -116 0 -3 -397z"/>
<path d="M7172 3267 c-113 -42 -172 -174 -127 -285 38 -89 146 -153 233 -137
162 30 240 196 156 332 -53 85 -167 124 -262 90z m171 -51 c23 -12 50 -39 64
-64 21 -36 25 -52 21 -101 -5 -72 -40 -124 -102 -152 -79 -36 -157 -20 -213
44 -67 76 -63 177 8 248 60 60 142 69 222 25z"/>
<path d="M7170 3060 c0 -112 1 -120 19 -120 17 0 20 8 23 48 3 43 5 47 30 50
22 3 30 -2 38 -23 5 -14 10 -37 10 -51 0 -19 5 -24 26 -24 24 0 25 1 18 48 -3
26 -11 52 -15 58 -6 7 -3 23 8 43 16 28 17 33 3 58 -15 26 -21 28 -88 31 l-72
3 0 -121z m104 77 c31 -22 12 -57 -30 -57 -31 0 -34 3 -34 28 0 16 3 32 7 35
10 11 38 8 57 -6z"/>
<path d="M4727 2444 l-78 -45 3 -87 3 -87 70 -42 c39 -23 77 -43 85 -43 8 0
47 20 85 43 l70 42 3 87 3 87 -70 40 c-38 23 -76 43 -83 46 -7 3 -48 -16 -91
-41z"/>
</g>
</svg>
